<svg width="293" height="138" viewBox="0 0 293 138" fill="none" xmlns="http://www.w3.org/2000/svg">
<path d="M1.99706 110.448L1.808 110.598V110.84V133.7V134.2H2.308H92.668H93.168V133.7V108.68V108.18H92.668H45.5304C58.5947 98.0054 69.3992 87.5969 77.938 76.9526L77.9397 76.9505C86.7626 65.8313 91.188 53.7838 91.188 40.8197C91.188 28.9475 87.4888 19.2741 80.0629 11.8475C72.7371 4.40067 61.8476 0.719727 47.488 0.719727C39.141 0.719727 31.507 2.35328 24.594 5.62785L24.5908 5.62934C17.778 8.91413 12.2481 14.0229 8.00191 20.9381L8.00188 20.9381L7.99859 20.9436C3.8637 27.8756 1.68961 36.4855 1.44814 46.748L1.43609 47.2597H1.948H31.648H32.148V46.7597C32.148 40.5784 33.3974 35.9012 35.8273 32.6607C38.3679 29.3124 41.8169 27.6397 46.228 27.6397C50.6831 27.6397 53.9425 28.9834 56.1025 31.5982C58.285 34.2401 59.408 37.9527 59.408 42.7997C59.408 49.1542 57.1143 55.7174 52.4753 62.4974C47.8195 69.3021 42.0858 75.8134 35.271 82.0303L35.2678 82.0333C28.5579 88.2639 19.3262 96.237 7.56946 105.954L7.87795 106.369C7.81862 106.422 7.71024 106.513 7.5528 106.643C7.52061 106.606 7.49185 106.56 7.46938 106.506C7.39575 106.327 7.45091 106.175 7.46194 106.145C7.48041 106.094 7.50294 106.059 7.5119 106.045C7.53173 106.015 7.55009 105.994 7.55357 105.99C7.55701 105.986 7.55992 105.983 7.562 105.981C7.5638 105.979 7.56498 105.978 7.56538 105.978C7.56618 105.977 7.55647 105.986 7.52753 106.012C7.50132 106.034 7.46578 106.065 7.42015 106.103C7.23689 106.257 6.91415 106.521 6.44912 106.896C5.52069 107.644 4.03694 108.828 1.99706 110.448ZM117.686 18.9395L117.684 18.9424C109.69 30.9335 105.72 47.3029 105.72 67.9997C105.72 88.9352 109.689 105.425 117.684 117.417L117.686 117.42C125.842 129.471 138.919 135.46 156.8 135.46C174.68 135.46 187.699 129.471 195.735 117.419C203.851 105.426 207.88 88.9355 207.88 67.9997C207.88 47.3032 203.85 30.9337 195.736 18.9422C187.7 6.88867 174.681 0.899724 156.8 0.899724C138.919 0.899724 125.842 6.8887 117.686 18.9395ZM172.716 40.2854L172.717 40.2884C175.321 46.6799 176.64 55.904 176.64 67.9997C176.64 76.1431 176.161 82.8914 175.208 88.2522C174.261 93.4582 172.315 97.688 169.387 100.967L169.386 100.968C166.63 104.069 162.467 105.66 156.8 105.66C151.139 105.66 146.912 104.071 144.033 100.967C141.226 97.6886 139.339 93.4587 138.392 88.2522C137.439 82.8914 136.96 76.1431 136.96 67.9997C136.96 55.904 138.279 46.6799 140.883 40.2884L140.884 40.2854C142.169 37.0742 144.127 34.69 146.754 33.1026C149.386 31.5119 152.725 30.6997 156.8 30.6997C160.875 30.6997 164.214 31.5119 166.846 33.1026C169.473 34.69 171.431 37.0742 172.716 40.2854ZM222.13 74.7447L222.126 74.7484C219.242 77.5068 217.832 81.4026 217.832 86.3597C217.832 91.3169 219.242 95.2126 222.126 97.9711L222.13 97.9747C225.057 100.714 228.815 102.07 233.362 102.07C237.908 102.07 241.639 100.714 244.508 97.9711C247.391 95.2126 248.802 91.3169 248.802 86.3597C248.802 81.4026 247.391 77.5068 244.508 74.7484C241.639 72.005 237.908 70.6497 233.362 70.6497C228.815 70.6497 225.057 72.005 222.13 74.7447ZM279.881 72.3796L280.285 71.6397H279.442H264.592H264.295L264.153 71.8998L229.503 135.26L229.099 136H229.942H244.792H245.088L245.231 135.74L279.881 72.3796ZM278.856 116.983L278.865 116.993C279.549 117.888 279.932 119.289 279.932 121.28C279.932 123.27 279.549 124.671 278.865 125.566C278.187 126.452 277.26 126.9 276.022 126.9C274.716 126.9 273.801 126.447 273.19 125.581C272.557 124.684 272.202 123.276 272.202 121.28C272.202 119.226 272.556 117.792 273.185 116.896C273.862 116.015 274.788 115.57 276.022 115.57C277.248 115.57 278.174 116.038 278.856 116.983ZM229.452 86.3597C229.452 84.3323 229.807 82.9007 230.442 81.9878C231.055 81.1078 231.969 80.6497 233.272 80.6497C234.609 80.6497 235.546 81.1111 236.172 81.9917C236.819 82.9039 237.182 84.3337 237.182 86.3597C237.182 88.3501 236.799 89.7513 236.115 90.646C235.437 91.532 234.51 91.9797 233.272 91.9797C231.966 91.9797 231.051 91.5268 230.44 90.6614C229.807 89.764 229.452 88.3562 229.452 86.3597ZM264.966 109.668C262.082 112.427 260.672 116.323 260.672 121.28C260.672 126.237 262.082 130.133 264.966 132.891C267.834 135.634 271.566 136.99 276.112 136.99C280.658 136.99 284.389 135.634 287.258 132.891C290.141 130.133 291.552 126.237 291.552 121.28C291.552 116.323 290.141 112.427 287.258 109.668C284.389 106.925 280.658 105.57 276.112 105.57C271.566 105.57 267.834 106.925 264.966 109.668Z" fill="#FB7C1F" stroke="#3E2723"/>
</svg>
