<svg width="30" height="30" viewBox="0 0 30 30" fill="none" xmlns="http://www.w3.org/2000/svg">
<path d="M15 7.67494C10.9465 7.67494 7.67503 10.9464 7.67503 14.9999C7.67503 19.0535 10.9465 22.3249 15 22.3249C19.0536 22.3249 22.325 19.0535 22.325 14.9999C22.325 10.9464 19.0536 7.67494 15 7.67494ZM15 19.7607C12.3786 19.7607 10.2393 17.6214 10.2393 14.9999C10.2393 12.3785 12.3786 10.2392 15 10.2392C17.6215 10.2392 19.7607 12.3785 19.7607 14.9999C19.7607 17.6214 17.6215 19.7607 15 19.7607ZM22.625 5.6678C21.6786 5.6678 20.9143 6.43208 20.9143 7.37851C20.9143 8.32494 21.6786 9.08922 22.625 9.08922C23.5715 9.08922 24.3357 8.32851 24.3357 7.37851C24.336 7.15378 24.292 6.9312 24.2061 6.72352C24.1202 6.51583 23.9942 6.32713 23.8353 6.16822C23.6764 6.00931 23.4877 5.88331 23.28 5.79744C23.0723 5.71157 22.8498 5.66751 22.625 5.6678ZM29.2786 14.9999C29.2786 13.0285 29.2965 11.0749 29.1857 9.10708C29.075 6.82137 28.5536 4.7928 26.8822 3.12137C25.2072 1.44637 23.1822 0.928511 20.8965 0.817796C18.925 0.707082 16.9715 0.724939 15.0036 0.724939C13.0322 0.724939 11.0786 0.707082 9.11074 0.817796C6.82503 0.928511 4.79646 1.44994 3.12503 3.12137C1.45003 4.79637 0.932173 6.82137 0.821458 9.10708C0.710744 11.0785 0.728601 13.0321 0.728601 14.9999C0.728601 16.9678 0.710744 18.9249 0.821458 20.8928C0.932173 23.1785 1.4536 25.2071 3.12503 26.8785C4.80003 28.5535 6.82503 29.0714 9.11074 29.1821C11.0822 29.2928 13.0357 29.2749 15.0036 29.2749C16.975 29.2749 18.9286 29.2928 20.8965 29.1821C23.1822 29.0714 25.2107 28.5499 26.8822 26.8785C28.5572 25.2035 29.075 23.1785 29.1857 20.8928C29.3 18.9249 29.2786 16.9714 29.2786 14.9999ZM26.1357 23.4214C25.875 24.0714 25.5607 24.5571 25.0572 25.0571C24.5536 25.5607 24.0715 25.8749 23.4215 26.1357C21.5429 26.8821 17.0822 26.7142 15 26.7142C12.9179 26.7142 8.4536 26.8821 6.57503 26.1392C5.92503 25.8785 5.43932 25.5642 4.93932 25.0607C4.43574 24.5571 4.12146 24.0749 3.86074 23.4249C3.11789 21.5428 3.28574 17.0821 3.28574 14.9999C3.28574 12.9178 3.11789 8.45351 3.86074 6.57494C4.12146 5.92494 4.43574 5.43923 4.93932 4.93923C5.44289 4.43923 5.92503 4.12137 6.57503 3.86065C8.4536 3.1178 12.9179 3.28565 15 3.28565C17.0822 3.28565 21.5465 3.1178 23.425 3.86065C24.075 4.12137 24.5607 4.43565 25.0607 4.93923C25.5643 5.4428 25.8786 5.92494 26.1393 6.57494C26.8822 8.45351 26.7143 12.9178 26.7143 14.9999C26.7143 17.0821 26.8822 21.5428 26.1357 23.4214Z" fill="black"/>
</svg>
