<svg width="30" height="26" viewBox="0 0 30 26" fill="none" xmlns="http://www.w3.org/2000/svg">
<path d="M29.857 3.79634C28.7642 4.26777 27.5749 4.60705 26.3499 4.7392C27.6217 3.98361 28.5741 2.78991 29.0284 1.38205C27.835 2.09201 26.5276 2.58985 25.1642 2.85348C24.5943 2.24429 23.9051 1.75898 23.1395 1.42779C22.3739 1.09661 21.5483 0.926639 20.7142 0.928482C17.3392 0.928482 14.6249 3.6642 14.6249 7.02134C14.6249 7.49277 14.682 7.9642 14.7749 8.41777C9.7213 8.15348 5.21416 5.7392 2.21773 2.04277C1.67175 2.97532 1.38564 4.03715 1.38916 5.11777C1.38916 7.23205 2.46416 9.09634 4.10345 10.1928C3.13739 10.1547 2.19396 9.88919 1.34987 9.41777V9.49277C1.34987 12.4535 3.44273 14.9071 6.23202 15.4713C5.7083 15.6074 5.16954 15.677 4.62845 15.6785C4.23202 15.6785 3.85702 15.6392 3.47845 15.5856C4.24987 17.9999 6.4963 19.7535 9.1713 19.8106C7.07845 21.4499 4.45702 22.4142 1.61059 22.4142C1.09987 22.4142 0.628446 22.3963 0.13916 22.3392C2.83916 24.0713 6.04273 25.0713 9.49273 25.0713C20.6927 25.0713 26.8213 15.7928 26.8213 7.7392C26.8213 7.47491 26.8213 7.21062 26.8034 6.94634C27.9892 6.07848 29.0284 5.00348 29.857 3.79634Z" fill="black"/>
</svg>
